<?xml version="1.0" encoding="UTF-8" standalone="no"?>
<!DOCTYPE svg PUBLIC "-//W3C//DTD SVG 1.1//EN" "http://www.w3.org/Graphics/SVG/1.1/DTD/svg11.dtd">
<svg width="100%" height="100%" viewBox="0 0 20 24" version="1.1" xmlns="http://www.w3.org/2000/svg" xmlns:xlink="http://www.w3.org/1999/xlink" xml:space="preserve" xmlns:serif="http://www.serif.com/" style="fill-rule:evenodd;clip-rule:evenodd;stroke-linejoin:round;stroke-miterlimit:2;">
    <g id="_-" serif:id="" transform="matrix(1,0,0,1,-9.765,-7.6)">
        <path d="M19.82,13.138C20.903,13.138 22.261,12.406 23.07,11.43C23.802,10.545 24.336,9.309 24.336,8.073C24.336,7.905 24.321,7.737 24.29,7.6C23.085,7.646 21.635,8.409 20.766,9.431C20.079,10.209 19.453,11.43 19.453,12.681C19.453,12.864 19.484,13.047 19.499,13.108C19.576,13.123 19.698,13.138 19.82,13.138ZM16.005,31.6C17.485,31.6 18.141,30.608 19.988,30.608C21.864,30.608 22.276,31.569 23.924,31.569C25.541,31.569 26.625,30.074 27.647,28.61C28.791,26.931 29.264,25.283 29.295,25.207C29.188,25.177 26.09,23.91 26.09,20.355C26.09,17.273 28.532,15.885 28.669,15.778C27.052,13.459 24.595,13.398 23.924,13.398C22.108,13.398 20.628,14.496 19.698,14.496C18.691,14.496 17.363,13.459 15.792,13.459C12.801,13.459 9.765,15.931 9.765,20.599C9.765,23.498 10.894,26.565 12.282,28.549C13.473,30.227 14.51,31.6 16.005,31.6Z" style="fill-rule:nonzero;"/>
    </g>
</svg>
